<svg xmlns="http://www.w3.org/2000/svg" xmlns:xlink="http://www.w3.org/1999/xlink" x="0" y="0" enable-background="new 0 0 80 80" version="1.1" viewBox="0 0 80 80" xml:space="preserve"><switch><g><path fill="#333" d="M32.5 44l12.3 11.8h-9.6L18.7 40.3l16-15.6h10.1L32.5 36h27.7V44H32.5zM80 40.3C80 62.3 61.9 80 40 80 18.1 80 0 62.3 0 40.3 0 17.7 18.1 0 40 0 61.9 0 80 17.7 80 40.3M74.7 40.3C74.7 20.9 59.2 4.8 40 4.8 20.8 4.8 5.3 20.9 5.3 40.3c0 19.3 15.5 34.9 34.7 34.9C59.2 75.2 74.7 59.6 74.7 40.3"/></g></switch></svg>